<svg width="36" height="36" viewBox="0 0 36 36" fill="none" xmlns="http://www.w3.org/2000/svg">
<mask id="mask0_220_242" style="mask-type:luminance" maskUnits="userSpaceOnUse" x="2" y="2" width="32" height="32">
<path d="M21.2744 26.9998H17.9991L11.2491 23.2798L3.00586 26.3113L5.25736 30.7693L10.5614 28.5545C15.5241 31.5178 18.5444 32.9998 19.6229 32.9998C20.7014 32.9998 25.1601 30.9995 32.9991 26.9998" stroke="white" stroke-width="2" stroke-linecap="round" stroke-linejoin="round"/>
<path fill-rule="evenodd" clip-rule="evenodd" d="M21.744 20.2409V16.7384C22.569 16.3957 23.6513 15.8947 24.273 15.2729C25.217 14.3289 25.8599 13.1262 26.1203 11.8168C26.3808 10.5075 26.2471 9.15026 25.7362 7.91687C25.2253 6.68347 24.3601 5.62927 23.2501 4.88757C22.1401 4.14588 20.835 3.75 19.5 3.75C18.165 3.75 16.8599 4.14588 15.7499 4.88757C14.6399 5.62927 13.7747 6.68347 13.2638 7.91687C12.7529 9.15026 12.6193 10.5075 12.8797 11.8168C13.1401 13.1262 13.783 14.3289 14.727 15.2729C15.3488 15.8947 16.425 16.3957 17.25 16.7377C17.2545 16.9889 17.2545 18.1567 17.25 20.2402H21.744V20.2409Z" fill="white" stroke="white" stroke-width="2" stroke-linejoin="round"/>
<path d="M9 15.75L9.75 15M30 15.75L29.25 15M11.25 3.75L10.5 3M27.75 3.75L28.5 3M30.75 9H30M9 9H8.25" stroke="white" stroke-width="2" stroke-linecap="round"/>
</mask>
<g mask="url(#mask0_220_242)">
<path d="M0 0H36V36H0V0Z" fill="white"/>
</g>
</svg>
