<svg width="48" height="48" viewBox="0 0 48 48" fill="none" xmlns="http://www.w3.org/2000/svg">
<path d="M13.8809 10C13.8803 11.0609 13.4584 12.0781 12.7079 12.8279C11.9574 13.5777 10.9397 13.9986 9.87886 13.998C8.81799 13.9975 7.80079 13.5756 7.05102 12.8251C6.30125 12.0745 5.88033 11.0569 5.88086 9.99605C5.88139 8.93518 6.30333 7.91798 7.05385 7.16821C7.80437 6.41844 8.82199 5.99752 9.88286 5.99805C10.9437 5.99858 11.9609 6.42051 12.7107 7.17103C13.4605 7.92155 13.8814 8.93918 13.8809 10ZM14.0009 16.96H6.00086V42H14.0009V16.96ZM26.6409 16.96H18.6809V42H26.5609V28.86C26.5609 21.54 36.1009 20.86 36.1009 28.86V42H44.0009V26.14C44.0009 13.8 29.8809 14.26 26.5609 20.32L26.6409 16.96Z" fill="white"/>
</svg>
