<svg width="48" height="48" viewBox="0 0 48 48" fill="none" xmlns="http://www.w3.org/2000/svg">
<path d="M38.5402 10.6601C35.8802 9.42009 33.0002 8.52009 30.0002 8.00009C29.9739 7.99925 29.9478 8.00419 29.9236 8.01455C29.8994 8.02492 29.8778 8.04047 29.8602 8.06009C29.5002 8.72009 29.0802 9.58009 28.8002 10.2401C25.6182 9.76009 22.3822 9.76009 19.2002 10.2401C18.9202 9.56009 18.5002 8.72009 18.1202 8.06009C18.1002 8.02009 18.0402 8.00009 17.9802 8.00009C14.9802 8.52009 12.1202 9.42009 9.44023 10.6601C9.42023 10.6601 9.40023 10.6801 9.38023 10.7001C3.94023 18.8401 2.44023 26.7601 3.18023 34.6001C3.18023 34.6401 3.20023 34.6801 3.24023 34.7001C6.84023 37.3401 10.3002 38.9401 13.7202 40.0001C13.7802 40.0201 13.8402 40.0001 13.8602 39.9601C14.6602 38.8601 15.3802 37.7001 16.0002 36.4801C16.0402 36.4001 16.0002 36.3201 15.9202 36.3001C14.7802 35.8601 13.7002 35.3401 12.6402 34.7401C12.5602 34.7001 12.5602 34.5801 12.6202 34.5201C12.8402 34.3601 13.0602 34.1801 13.2802 34.0201C13.3202 33.9801 13.3802 33.9801 13.4202 34.0001C20.3002 37.1401 27.7202 37.1401 34.5202 34.0001C34.5602 33.9801 34.6202 33.9801 34.6602 34.0201C34.8802 34.2001 35.1002 34.3601 35.3202 34.5401C35.4002 34.6001 35.4002 34.7201 35.3002 34.7601C34.2602 35.3801 33.1602 35.8801 32.0202 36.3201C31.9402 36.3401 31.9202 36.4401 31.9402 36.5001C32.5802 37.7201 33.3002 38.8801 34.0802 39.9801C34.1402 40.0001 34.2002 40.0201 34.2602 40.0001C37.7002 38.9401 41.1602 37.3401 44.7602 34.7001C44.8002 34.6801 44.8202 34.6401 44.8202 34.6001C45.7002 25.5401 43.3602 17.6801 38.6202 10.7001C38.6002 10.6801 38.5802 10.6601 38.5402 10.6601ZM17.0402 29.8201C14.9802 29.8201 13.2602 27.9201 13.2602 25.5801C13.2602 23.2401 14.9402 21.3401 17.0402 21.3401C19.1602 21.3401 20.8402 23.2601 20.8202 25.5801C20.8202 27.9201 19.1402 29.8201 17.0402 29.8201ZM30.9802 29.8201C28.9202 29.8201 27.2002 27.9201 27.2002 25.5801C27.2002 23.2401 28.8802 21.3401 30.9802 21.3401C33.1002 21.3401 34.7802 23.2601 34.7602 25.5801C34.7602 27.9201 33.1002 29.8201 30.9802 29.8201Z" fill="white"/>
</svg>
