<svg width="36" height="36" viewBox="0 0 36 36" fill="none" xmlns="http://www.w3.org/2000/svg">
<path d="M18 19.5C16.35 19.5 14.9375 18.9125 13.7625 17.7375C12.5875 16.5625 12 15.15 12 13.5V8.25C12 7.625 12.219 7.0935 12.657 6.6555C13.095 6.2175 13.626 5.999 14.25 6C14.625 6 14.9815 6.0875 15.3195 6.2625C15.6575 6.4375 15.926 6.6875 16.125 7.0125C16.325 6.6875 16.5935 6.4375 16.9305 6.2625C17.2675 6.0875 17.624 6 18 6C18.375 6 18.7315 6.0875 19.0695 6.2625C19.4075 6.4375 19.676 6.6875 19.875 7.0125C20.075 6.6875 20.3435 6.4375 20.6805 6.2625C21.0175 6.0875 21.374 6 21.75 6C22.375 6 22.9065 6.219 23.3445 6.657C23.7825 7.095 24.001 7.626 24 8.25V13.5C24 15.15 23.4125 16.5625 22.2375 17.7375C21.0625 18.9125 19.65 19.5 18 19.5ZM6 31.5V27.3C6 26.45 6.219 25.6685 6.657 24.9555C7.095 24.2425 7.676 23.699 8.4 23.325C9.95 22.55 11.525 21.9685 13.125 21.5805C14.725 21.1925 16.35 20.999 18 21C19.65 21 21.275 21.194 22.875 21.582C24.475 21.97 26.05 22.551 27.6 23.325C28.325 23.7 28.9065 24.244 29.3445 24.957C29.7825 25.67 30.001 26.451 30 27.3V31.5H6Z" fill="#F9F9F9"/>
</svg>
