<svg width="36" height="36" viewBox="0 0 36 36" fill="none" xmlns="http://www.w3.org/2000/svg">
<path d="M16.5386 3.00537C15.929 3.00558 15.3208 3.04243 14.763 3.11014L16.3799 3.62862L18.2122 3.12209L17.1643 3.70329L19.2162 3.76925L17.0247 3.90657L17.561 4.25068C18.4132 4.15336 19.3244 3.94587 20.3125 3.60268C20.1076 3.50178 19.8262 3.40067 19.4944 3.31693C18.6951 3.11513 17.6136 3.00516 16.5387 3.00544L16.5386 3.00537ZM14.749 3.11168C14.3285 3.16315 13.9362 3.23157 13.5985 3.31784C13.2621 3.40376 12.9795 3.50804 12.7808 3.61006C12.9959 3.69345 13.2134 3.77048 13.4331 3.84104L15.7059 3.71911L14.749 3.11168ZM13.471 3.85299C14.0025 4.02153 14.5508 4.15062 15.1237 4.22937L15.7187 3.92246L13.471 3.85299ZM16.3349 4.00528L15.4072 4.26403C15.9932 4.32647 16.6054 4.33589 17.2515 4.2814L16.3349 4.00528ZM20.6629 4.8181C17.4226 5.91518 14.7649 5.68505 12.4715 4.84221V23.502C14.9809 24.4756 17.6837 24.4361 20.6629 23.3962C20.665 17.2114 20.6632 10.6947 20.6629 4.81824V4.8181ZM22.5205 16.2357C22.5156 16.2357 22.5105 16.2359 22.5055 16.2359C22.5769 16.3212 22.6458 16.4085 22.7122 16.4976C23.2621 17.2345 23.743 18.2079 24.1076 19.2159C24.2669 19.6561 24.4026 20.1002 24.5079 20.535L24.752 19.2971L24.7494 19.3113C24.7736 19.1739 24.8037 19.0376 24.8396 18.9028C24.6346 18.1377 24.2829 17.4264 23.8556 16.9467C23.4499 16.4911 23.0233 16.2461 22.5208 16.2357L22.5205 16.2357ZM29.3597 16.6289C27.6136 16.6335 26.3352 17.5757 25.9959 19.5279L25.9948 19.5351L25.7266 21.0353C26.8375 20.3612 27.9982 19.9332 29.2816 19.9716C30.7476 20.0156 32.3534 20.4638 33.5747 21.2494L33.3371 19.471L33.3364 19.4633C32.9596 17.3975 31.2628 16.6447 29.3598 16.6288L29.3597 16.6289ZM21.9284 17.5922V23.4361L23.3183 22.9758L23.3171 22.9698C23.3534 22.9622 23.3357 22.9934 23.3862 22.8755C23.4369 22.7577 23.4837 22.5022 23.4755 22.1707C23.4591 21.508 23.248 20.5602 22.9174 19.6464C22.6448 18.8926 22.2896 18.1568 21.9282 17.5922H21.9284ZM11.2059 18.7216C9.31937 19.1432 7.38775 19.5749 5.93397 19.9011C5.68836 19.9562 5.55709 19.9862 5.3335 20.0364C5.50543 20.1594 5.66859 20.2942 5.82182 20.4398C6.72182 21.296 7.34633 22.494 7.69283 23.7611C8.03947 25.0282 8.10979 26.3695 7.80273 27.5475C7.74643 27.7643 7.67457 27.9768 7.58772 28.1834L11.206 26.9856L11.2059 18.7216ZM3.1029 20.5486C3.08743 20.5489 3.0714 20.5504 3.05579 20.5509L3.00193 20.5632C2.84317 20.5997 2.69579 20.638 2.75654 20.6207L2.7434 20.6243L2.73025 20.6275C2.50208 20.6822 2.34212 20.7984 2.18476 21.029C2.0274 21.2598 1.89627 21.6101 1.82511 22.0438C1.6828 22.9113 1.78236 24.0913 2.10088 25.2114C2.4194 26.3312 2.95757 27.3929 3.59186 28.0652C4.16336 28.6711 4.73725 28.9596 5.41492 28.8707C6.00695 28.5672 6.37525 28.0078 6.57831 27.2285C6.81203 26.3318 6.76886 25.1789 6.47249 24.0951C6.17591 23.0112 5.62775 22.0019 4.94966 21.3567C4.39876 20.8326 3.80146 20.5376 3.1029 20.5487V20.5486ZM29.2243 21.2336C27.7353 21.2246 26.3288 21.7183 25.3419 22.8445L25.1039 24.0507C26.1874 22.9177 27.7121 22.2094 29.3991 22.2094C31.2474 22.2094 32.9019 23.0582 33.9939 24.3861L33.8146 23.0446C32.6948 21.9649 31.0178 21.2855 29.3845 21.2365C29.331 21.2349 29.2776 21.234 29.2243 21.2337L29.2243 21.2336ZM2.74143 22.1503L4.05648 24.1827L5.01716 22.6465L4.54677 24.6961L6.45913 25.8171L4.71665 25.4837L5.44944 27.4071L4.2047 25.572L3.30561 26.994L3.68917 25.0532L1.91701 24.0231L3.60943 24.409L2.74143 22.1503ZM29.399 23.3184C26.7204 23.3184 24.5608 25.4781 24.5608 28.1568C24.5608 30.8354 26.7204 32.995 29.399 32.995C32.0778 32.995 34.2374 30.8354 34.2374 28.1568C34.2374 25.478 32.0777 23.3184 29.399 23.3184V23.3184ZM20.6629 24.7298C17.785 25.653 15.0287 25.7144 12.4715 24.8465V27.6617C14.9809 28.6513 17.6836 28.6253 20.6629 27.5965V24.7298ZM29.399 26.436C30.3494 26.436 31.1199 27.2064 31.1199 28.1568C31.1199 29.1071 30.3494 29.8776 29.399 29.8776C28.4486 29.8776 27.6781 29.1071 27.6781 28.1567C27.6781 27.2062 28.4486 26.4358 29.399 26.4358V26.436ZM20.875 28.8609C17.868 29.8568 14.992 29.9156 12.3344 28.9617L12.1124 29.9192C14.8467 31.2678 18.0888 31.2498 21.1679 29.9044L20.875 28.8609Z" fill="white"/>
</svg>
